<?xml version="1.0" standalone="no"?><!DOCTYPE svg PUBLIC "-//W3C//DTD SVG 1.1//EN" "http://www.w3.org/Graphics/SVG/1.1/DTD/svg11.dtd"><svg t="1562379191040" class="icon" viewBox="0 0 1024 1024" version="1.1" xmlns="http://www.w3.org/2000/svg" p-id="3533" xmlns:xlink="http://www.w3.org/1999/xlink" width="200" height="200"><defs><style type="text/css"></style></defs><path d="M576 576l128 0 0 128-128 0 0-128Z" p-id="3534" fill="#bfbfbf"></path><path d="M384 576l128 0 0 128-128 0 0-128Z" p-id="3535" fill="#bfbfbf"></path><path d="M128 576l192 0 0 128-192 0 0-128Z" p-id="3536" fill="#bfbfbf"></path><path d="M384 384l128 0 0 128-128 0 0-128Z" p-id="3537" fill="#bfbfbf"></path><path d="M128 192l192 0 0 128-192 0 0-128Z" p-id="3538" fill="#bfbfbf"></path><path d="M576 384l128 0 0 128-128 0 0-128Z" p-id="3539" fill="#bfbfbf"></path><path d="M128 384l192 0 0 128-192 0 0-128Z" p-id="3540" fill="#bfbfbf"></path><path d="M768 576l128 0 0 128-128 0 0-128Z" p-id="3541" fill="#bfbfbf"></path><path d="M768 384l128 0 0 128-128 0 0-128Z" p-id="3542" fill="#bfbfbf"></path><path d="M384 192l512 0 0 128-512 0 0-128Z" p-id="3543" fill="#bfbfbf"></path><path d="M384 768l128 0 0 128-128 0 0-128Z" p-id="3544" fill="#bfbfbf"></path><path d="M128 768l192 0 0 128-192 0 0-128Z" p-id="3545" fill="#bfbfbf"></path><path d="M768 768l128 0 0 128-128 0 0-128Z" p-id="3546" fill="#bfbfbf"></path><path d="M576 768l128 0 0 128-128 0 0-128Z" p-id="3547" fill="#bfbfbf"></path></svg>